<svg version="1.1" id="Layer_1" xmlns="http://www.w3.org/2000/svg" xmlns:xlink="http://www.w3.org/1999/xlink" x="0px" y="0px"
	 width="100%" viewBox="0 0 496 496" enable-background="new 0 0 496 496" xml:space="preserve">
<path fill="#000000" opacity="1.000000" stroke="none" 
	d="
M344.844086,295.656799 
	C354.828369,295.720795 363.219452,293.696991 367.692871,284.014618 
	C372.186676,274.288177 372.034027,264.804932 365.233124,256.334412 
	C360.103333,249.945297 353.561066,244.962860 346.213257,241.157669 
	C335.420166,235.568237 324.512604,230.108078 314.825989,222.704147 
	C295.375793,207.837448 288.844757,188.273026 293.889069,164.413498 
	C296.054596,154.170547 301.467163,146.088943 308.632477,138.902664 
	C311.011749,136.516418 313.883209,134.690155 317.102570,133.758087 
	C333.087250,129.130295 349.327332,127.626419 365.954559,129.285172 
	C374.502686,130.137955 382.735352,131.563507 390.434937,135.492752 
	C393.129456,136.867813 395.053589,138.696930 395.260529,141.917740 
	C395.847107,151.047470 396.913300,160.179581 396.193298,169.325623 
	C395.928833,172.685654 397.079376,178.150467 392.644043,178.510284 
	C388.431641,178.851959 388.812408,173.265549 388.092468,170.175568 
	C386.630463,163.900650 384.157623,158.230988 380.730255,152.832977 
	C371.276154,137.942810 351.958618,135.990524 338.395935,140.058243 
	C336.592987,140.599014 335.161194,141.735214 333.791473,142.972229 
	C323.314819,152.433746 323.161987,168.805603 333.175079,178.818253 
	C342.953125,188.595856 354.846130,195.365723 366.280792,202.799545 
	C374.392365,208.072983 382.305389,213.631744 389.539673,220.042892 
	C407.738525,236.170944 413.118195,260.286041 398.185028,282.865784 
	C388.380188,297.691254 375.375641,306.285522 357.602356,307.332825 
	C340.833466,308.320984 324.026123,309.750824 307.469971,305.350708 
	C305.068237,304.712433 302.766998,303.702942 300.376038,303.015594 
	C295.790619,301.697266 293.600739,298.572083 293.092133,293.967987 
	C291.869904,282.904266 291.736298,271.738495 289.920410,260.727234 
	C289.622711,258.922150 289.750092,256.673462 291.997131,256.227753 
	C294.328491,255.765305 295.010803,257.882660 295.466675,259.673828 
	C298.363983,271.057526 304.405243,280.358002 313.716827,287.536804 
	C322.801849,294.540924 333.248108,296.363403 344.844086,295.656799 
z"/>
<path fill="#000000" opacity="1.000000" stroke="none" 
	d="
M173.000092,128.668701 
	C180.999939,128.672867 188.499847,128.661530 195.999588,128.691010 
	C198.343399,128.700226 201.278824,128.541122 201.738525,131.413666 
	C202.220291,134.423904 199.020569,134.305054 197.137054,134.862885 
	C186.413910,138.038727 185.365860,139.206741 185.332031,150.594833 
	C185.244385,180.093613 185.382187,209.593414 185.209000,239.091492 
	C185.060379,264.406006 183.776520,289.703125 183.995865,315.029724 
	C184.053360,321.669495 182.918045,328.310669 181.101807,334.727661 
	C178.302826,344.616943 171.560501,350.968018 162.104980,354.431427 
	C152.011856,358.128418 141.591110,360.027832 130.768967,359.347839 
	C127.713425,359.155884 124.862465,358.406982 122.122520,357.145233 
	C120.677963,356.479980 119.549408,355.468628 119.933891,353.665039 
	C120.281319,352.035248 121.637520,351.807068 123.021469,351.716248 
	C124.515945,351.618134 126.034760,351.659515 127.501221,351.402191 
	C139.555435,349.287201 144.649628,343.572784 145.595642,331.189850 
	C145.646362,330.526123 145.633896,329.857452 145.645737,329.190979 
	C146.732346,268.045227 147.135956,206.894928 146.864746,145.740143 
	C146.831512,138.244324 145.697952,136.959457 138.409302,135.377533 
	C135.720932,134.794022 130.987305,135.707840 131.259201,131.957321 
	C131.573593,127.620605 136.348526,128.746964 139.501282,128.715759 
	C150.499954,128.606934 161.500351,128.670761 173.000092,128.668701 
z"/>
<path fill="#000000" opacity="1.000000" stroke="none" 
	d="
M420.682678,124.898499 
	C419.465820,123.001595 419.374237,121.418884 420.763306,120.046066 
	C422.598175,118.232674 424.505554,119.424622 426.328888,120.126152 
	C450.706573,129.505646 465.853424,147.173676 474.237762,171.702606 
	C481.780975,193.770798 483.674500,216.206467 481.166718,239.134583 
	C480.187500,248.087448 477.547028,256.780823 473.748260,264.960693 
	C465.219055,283.326508 454.534821,300.020020 436.650665,310.908752 
	C433.105164,313.067383 429.918365,315.807648 426.476471,318.147797 
	C425.106720,319.079071 423.401215,319.912079 421.953949,318.297333 
	C420.436584,316.604340 421.661407,315.209869 422.826080,313.967285 
	C439.882629,295.770416 446.816101,273.312012 449.726257,249.285843 
	C452.456757,226.742828 451.948700,204.123718 448.575928,181.737976 
	C446.227295,166.149612 439.440674,151.870972 431.836731,138.111954 
	C429.076569,133.117584 425.282684,128.893631 420.682678,124.898499 
z"/>
<path fill="#000000" opacity="1.000000" stroke="none" 
	d="
M79.353256,221.237244 
	C79.159752,240.944382 80.548706,260.056396 87.363754,278.175568 
	C92.194664,291.019501 96.658272,304.337280 107.623688,313.820190 
	C108.904099,314.927460 110.274879,316.335114 109.023232,318.089752 
	C107.561691,320.138672 105.623344,319.031799 104.166168,317.991943 
	C92.924606,309.969482 81.179016,302.527679 72.641617,291.307343 
	C59.994385,274.685608 51.007347,256.201233 49.074299,235.400726 
	C47.336571,216.701981 47.968102,197.886612 54.107067,179.595215 
	C58.315586,167.055664 62.600952,154.704147 70.828888,144.134399 
	C79.908661,132.470352 92.067215,125.155891 105.512360,119.672470 
	C107.348663,118.923561 109.101387,118.745888 110.452019,120.551186 
	C111.863884,122.438324 111.027161,123.933128 109.569252,125.352798 
	C93.978554,140.534576 87.736977,160.335693 82.309296,180.543076 
	C80.653015,186.709457 80.181206,192.974457 80.310745,199.338791 
	C80.456375,206.493118 80.495308,213.657028 79.353256,221.237244 
z"/>
<path fill="#000000" opacity="1.000000" stroke="none" 
	d="
M258.668945,293.223511 
	C250.994370,269.581390 244.260727,246.040237 235.601166,223.154160 
	C227.401047,201.482376 221.141525,179.250992 215.356308,156.857208 
	C213.646744,150.239700 211.219177,143.861771 208.572754,137.566513 
	C205.960159,131.351685 207.518738,129.524872 214.120972,129.387543 
	C221.714966,129.229568 225.011932,133.581848 227.542999,139.767471 
	C232.979507,153.053635 235.992722,167.084808 240.466064,180.666229 
	C252.953476,218.579056 265.239685,256.558167 277.606415,294.510742 
	C277.657928,294.668915 277.735016,294.818878 277.784576,294.977539 
	C281.292572,306.209564 279.010193,308.822144 267.227081,307.440979 
	C264.537018,307.125702 262.834320,305.975861 261.986023,303.580658 
	C260.820618,300.290192 259.831299,296.937378 258.668945,293.223511 
z"/>
<path fill="#000000" opacity="1.000000" stroke="none" 
	d="
M36.663536,296.008240 
	C32.659100,304.135498 23.776203,307.605072 16.538788,304.177887 
	C9.689234,300.934418 6.486450,291.424103 9.754223,284.031891 
	C13.330297,275.942261 21.076962,272.580780 28.952694,275.701172 
	C35.567543,278.321991 38.445976,285.593231 36.663536,296.008240 
z"/>
</svg>